<?xml version="1.0" standalone="no"?><!DOCTYPE svg PUBLIC "-//W3C//DTD SVG 1.1//EN" "http://www.w3.org/Graphics/SVG/1.1/DTD/svg11.dtd"><svg t="1756913366877" class="icon" viewBox="0 0 1137 1024" version="1.1" xmlns="http://www.w3.org/2000/svg" p-id="5267" xmlns:xlink="http://www.w3.org/1999/xlink" width="222.0703125" height="200"><path d="M758.404334 312.849609c0 47.098087 36.404318 85.322621 81.284016 85.32262s81.227135-38.224534 81.227135-85.32262S884.511167 227.526988 839.68835 227.526988c-44.93658 0-81.284017 38.224534-81.284016 85.322621z" fill="#999999" p-id="5268"></path><path d="M1128.647625 52.388089a36.745609 36.745609 0 0 0-25.198614-12.457103l-523.312073-36.404318A36.290555 36.290555 0 0 0 548.965741 17.064524L443.10881 148.233833a36.404318 36.404318 0 0 0 0.796344 46.643032l167.630509 194.02364-169.109434 222.180104 41.864966-197.891598a36.404318 36.404318 0 0 0-12.798394-35.835501L251.98614 199.484287 343.224462 56.028521a36.404318 36.404318 0 0 0 0.455054-38.224534 36.745609 36.745609 0 0 0-34.072167-17.690224L34.129048 19.226031a36.745609 36.745609 0 0 0-34.015285 39.020878l63.991966 910.961179a36.518082 36.518082 0 0 0 39.362169 33.901522l202.499019-15.073663a36.518082 36.518082 0 1 0-5.517529-72.808637l-165.696529 12.286458-7.394627-105.629405 143.740175-14.3342a36.745609 36.745609 0 0 0 32.877649-39.987868 36.859372 36.859372 0 0 0-40.158513-32.763886l-141.578669 14.220436-46.358623-659.430093 166.492873-11.603877-69.907667 109.838654a36.404318 36.404318 0 0 0 7.849681 47.894431l227.58387 184.183097-67.40487 318.822192c-1.080753 5.631293-0.796344 11.376349 0.853226 16.836997a36.006146 36.006146 0 0 0 1.592689 12.627748l59.157017 176.390298c4.55054 13.822265 16.950761 23.549043 31.455606 24.857323l600.04555 54.265187a36.916254 36.916254 0 0 0 39.987868-33.787758l63.935084-911.018061a36.4612 36.4612 0 0 0-8.873553-26.506894z m-113.479085 720.122918l-473.256136-45.277871a36.290555 36.290555 0 0 0-40.04475 32.87765 36.404318 36.404318 0 0 0 32.991414 39.817223l475.190115 45.505398-7.1671 102.159617-538.84079-48.747657-45.391635-135.549203 269.335073-353.861349a36.290555 36.290555 0 0 0-1.422044-45.903569L519.500996 170.247069l74.685734-92.546603 467.567961 32.53636-46.586151 662.274181z" fill="#999999" p-id="5269"></path></svg>